<svg xmlns="http://www.w3.org/2000/svg" width="1160" height="640" viewBox="0 0 1160 640">
<rect width="100%" height="100%" fill="white"/>
<text x="580" y="35" text-anchor="middle" font-size="22" font-family="Arial">Mahalanobis remake2 distance from real-data feature distribution</text>
<line x1="90" y1="450" x2="1130" y2="450" stroke="#333"/>
<line x1="90" y1="70" x2="90" y2="450" stroke="#333"/>
<line x1="85" y1="450.00" x2="1130" y2="450.00" stroke="#ddd"/>
<text x="80" y="454.00" text-anchor="end" font-size="12" font-family="Arial">0.00</text>
<line x1="85" y1="374.00" x2="1130" y2="374.00" stroke="#ddd"/>
<text x="80" y="378.00" text-anchor="end" font-size="12" font-family="Arial">5.92</text>
<line x1="85" y1="298.00" x2="1130" y2="298.00" stroke="#ddd"/>
<text x="80" y="302.00" text-anchor="end" font-size="12" font-family="Arial">11.84</text>
<line x1="85" y1="222.00" x2="1130" y2="222.00" stroke="#ddd"/>
<text x="80" y="226.00" text-anchor="end" font-size="12" font-family="Arial">17.76</text>
<line x1="85" y1="146.00" x2="1130" y2="146.00" stroke="#ddd"/>
<text x="80" y="150.00" text-anchor="end" font-size="12" font-family="Arial">23.68</text>
<line x1="85" y1="70.00" x2="1130" y2="70.00" stroke="#ddd"/>
<text x="80" y="74.00" text-anchor="end" font-size="12" font-family="Arial">29.60</text>
<rect x="90.00" y="70.00" width="42.50" height="380.00" fill="#2a6fbb"/>
<text x="111.25" y="64.00" text-anchor="middle" font-size="11" font-family="Arial">29.60</text>
<text x="111.25" y="468.00" transform="rotate(45 111.25 468.00)" font-size="12" font-family="Arial">mask10_gc.csv</text>
<rect x="142.50" y="229.52" width="42.50" height="220.48" fill="#2a6fbb"/>
<text x="163.75" y="223.52" text-anchor="middle" font-size="11" font-family="Arial">17.18</text>
<text x="163.75" y="468.00" transform="rotate(45 163.75 468.00)" font-size="12" font-family="Arial">mask4_gc.csv</text>
<rect x="195.00" y="243.61" width="42.50" height="206.39" fill="#2a6fbb"/>
<text x="216.25" y="237.61" text-anchor="middle" font-size="11" font-family="Arial">16.08</text>
<text x="216.25" y="468.00" transform="rotate(45 216.25 468.00)" font-size="12" font-family="Arial">mask13_gc.csv</text>
<rect x="247.50" y="245.66" width="42.50" height="204.34" fill="#2a6fbb"/>
<text x="268.75" y="239.66" text-anchor="middle" font-size="11" font-family="Arial">15.92</text>
<text x="268.75" y="468.00" transform="rotate(45 268.75 468.00)" font-size="12" font-family="Arial">mask17_gc.csv</text>
<rect x="300.00" y="257.13" width="42.50" height="192.87" fill="#2a6fbb"/>
<text x="321.25" y="251.13" text-anchor="middle" font-size="11" font-family="Arial">15.02</text>
<text x="321.25" y="468.00" transform="rotate(45 321.25 468.00)" font-size="12" font-family="Arial">mask18_gc.csv</text>
<rect x="352.50" y="260.49" width="42.50" height="189.51" fill="#2a6fbb"/>
<text x="373.75" y="254.49" text-anchor="middle" font-size="11" font-family="Arial">14.76</text>
<text x="373.75" y="468.00" transform="rotate(45 373.75 468.00)" font-size="12" font-family="Arial">mask9_gc.csv</text>
<rect x="405.00" y="264.87" width="42.50" height="185.13" fill="#2a6fbb"/>
<text x="426.25" y="258.87" text-anchor="middle" font-size="11" font-family="Arial">14.42</text>
<text x="426.25" y="468.00" transform="rotate(45 426.25 468.00)" font-size="12" font-family="Arial">mask12_gc.csv</text>
<rect x="457.50" y="268.07" width="42.50" height="181.93" fill="#2a6fbb"/>
<text x="478.75" y="262.07" text-anchor="middle" font-size="11" font-family="Arial">14.17</text>
<text x="478.75" y="468.00" transform="rotate(45 478.75 468.00)" font-size="12" font-family="Arial">mask8_gc.csv</text>
<rect x="510.00" y="281.30" width="42.50" height="168.70" fill="#2a6fbb"/>
<text x="531.25" y="275.30" text-anchor="middle" font-size="11" font-family="Arial">13.14</text>
<text x="531.25" y="468.00" transform="rotate(45 531.25 468.00)" font-size="12" font-family="Arial">mask2_gc.csv</text>
<rect x="562.50" y="284.26" width="42.50" height="165.74" fill="#2a6fbb"/>
<text x="583.75" y="278.26" text-anchor="middle" font-size="11" font-family="Arial">12.91</text>
<text x="583.75" y="468.00" transform="rotate(45 583.75 468.00)" font-size="12" font-family="Arial">mask6_gc.csv</text>
<rect x="615.00" y="289.51" width="42.50" height="160.49" fill="#2a6fbb"/>
<text x="636.25" y="283.51" text-anchor="middle" font-size="11" font-family="Arial">12.50</text>
<text x="636.25" y="468.00" transform="rotate(45 636.25 468.00)" font-size="12" font-family="Arial">mask19_gc.csv</text>
<rect x="667.50" y="301.26" width="42.50" height="148.74" fill="#2a6fbb"/>
<text x="688.75" y="295.26" text-anchor="middle" font-size="11" font-family="Arial">11.59</text>
<text x="688.75" y="468.00" transform="rotate(45 688.75 468.00)" font-size="12" font-family="Arial">mask3_gc.csv</text>
<rect x="720.00" y="305.75" width="42.50" height="144.25" fill="#2a6fbb"/>
<text x="741.25" y="299.75" text-anchor="middle" font-size="11" font-family="Arial">11.24</text>
<text x="741.25" y="468.00" transform="rotate(45 741.25 468.00)" font-size="12" font-family="Arial">mask11_gc.csv</text>
<rect x="772.50" y="306.89" width="42.50" height="143.11" fill="#2a6fbb"/>
<text x="793.75" y="300.89" text-anchor="middle" font-size="11" font-family="Arial">11.15</text>
<text x="793.75" y="468.00" transform="rotate(45 793.75 468.00)" font-size="12" font-family="Arial">mask1_gc.csv</text>
<rect x="825.00" y="324.47" width="42.50" height="125.53" fill="#2a6fbb"/>
<text x="846.25" y="318.47" text-anchor="middle" font-size="11" font-family="Arial">9.78</text>
<text x="846.25" y="468.00" transform="rotate(45 846.25 468.00)" font-size="12" font-family="Arial">mask7_gc.csv</text>
<rect x="877.50" y="326.66" width="42.50" height="123.34" fill="#2a6fbb"/>
<text x="898.75" y="320.66" text-anchor="middle" font-size="11" font-family="Arial">9.61</text>
<text x="898.75" y="468.00" transform="rotate(45 898.75 468.00)" font-size="12" font-family="Arial">mask15_gc.csv</text>
<rect x="930.00" y="336.26" width="42.50" height="113.74" fill="#2a6fbb"/>
<text x="951.25" y="330.26" text-anchor="middle" font-size="11" font-family="Arial">8.86</text>
<text x="951.25" y="468.00" transform="rotate(45 951.25 468.00)" font-size="12" font-family="Arial">mask14_gc.csv</text>
<rect x="982.50" y="341.90" width="42.50" height="108.10" fill="#2a6fbb"/>
<text x="1003.75" y="335.90" text-anchor="middle" font-size="11" font-family="Arial">8.42</text>
<text x="1003.75" y="468.00" transform="rotate(45 1003.75 468.00)" font-size="12" font-family="Arial">mask20_gc.csv</text>
<rect x="1035.00" y="360.86" width="42.50" height="89.14" fill="#2a6fbb"/>
<text x="1056.25" y="354.86" text-anchor="middle" font-size="11" font-family="Arial">6.94</text>
<text x="1056.25" y="468.00" transform="rotate(45 1056.25 468.00)" font-size="12" font-family="Arial">mask5_gc.csv</text>
<rect x="1087.50" y="371.77" width="42.50" height="78.23" fill="#2a6fbb"/>
<text x="1108.75" y="365.77" text-anchor="middle" font-size="11" font-family="Arial">6.09</text>
<text x="1108.75" y="468.00" transform="rotate(45 1108.75 468.00)" font-size="12" font-family="Arial">mask16_gc.csv</text>
<text x="22" y="260.00" transform="rotate(-90 22 260.00)" text-anchor="middle" font-size="14" font-family="Arial">Mahalanobis distance</text>
</svg>