<svg xmlns="http://www.w3.org/2000/svg" width="1260" height="700" viewBox="0 0 1260 700">
<rect width="100%" height="100%" fill="white"/>
<text x="610" y="35" text-anchor="middle" font-size="22" font-family="Arial">GARCH masks in real-window Mahalanobis remake2 distribution</text>
<line x1="90" y1="620" x2="940" y2="620" stroke="#333"/>
<line x1="90" y1="70" x2="90" y2="620" stroke="#333"/>
<line x1="85" y1="620.00" x2="940" y2="620.00" stroke="#ddd"/>
<text x="80" y="624.00" text-anchor="end" font-size="12" font-family="Arial">0</text>
<line x1="85" y1="510.00" x2="940" y2="510.00" stroke="#ddd"/>
<text x="80" y="514.00" text-anchor="end" font-size="12" font-family="Arial">11</text>
<line x1="85" y1="400.00" x2="940" y2="400.00" stroke="#ddd"/>
<text x="80" y="404.00" text-anchor="end" font-size="12" font-family="Arial">23</text>
<line x1="85" y1="290.00" x2="940" y2="290.00" stroke="#ddd"/>
<text x="80" y="294.00" text-anchor="end" font-size="12" font-family="Arial">34</text>
<line x1="85" y1="180.00" x2="940" y2="180.00" stroke="#ddd"/>
<text x="80" y="184.00" text-anchor="end" font-size="12" font-family="Arial">46</text>
<line x1="85" y1="70.00" x2="940" y2="70.00" stroke="#ddd"/>
<text x="80" y="74.00" text-anchor="end" font-size="12" font-family="Arial">57</text>
<rect x="90.00" y="620.00" width="44.22" height="0.00" fill="#d9d9d9" stroke="#999"/>
<rect x="137.22" y="620.00" width="44.22" height="0.00" fill="#d9d9d9" stroke="#999"/>
<rect x="184.44" y="70.00" width="44.22" height="550.00" fill="#d9d9d9" stroke="#999"/>
<rect x="231.67" y="176.14" width="44.22" height="443.86" fill="#d9d9d9" stroke="#999"/>
<rect x="278.89" y="581.40" width="44.22" height="38.60" fill="#d9d9d9" stroke="#999"/>
<rect x="326.11" y="620.00" width="44.22" height="0.00" fill="#d9d9d9" stroke="#999"/>
<rect x="373.33" y="620.00" width="44.22" height="0.00" fill="#d9d9d9" stroke="#999"/>
<rect x="420.56" y="620.00" width="44.22" height="0.00" fill="#d9d9d9" stroke="#999"/>
<rect x="467.78" y="620.00" width="44.22" height="0.00" fill="#d9d9d9" stroke="#999"/>
<rect x="515.00" y="620.00" width="44.22" height="0.00" fill="#d9d9d9" stroke="#999"/>
<rect x="562.22" y="620.00" width="44.22" height="0.00" fill="#d9d9d9" stroke="#999"/>
<rect x="609.44" y="620.00" width="44.22" height="0.00" fill="#d9d9d9" stroke="#999"/>
<rect x="656.67" y="620.00" width="44.22" height="0.00" fill="#d9d9d9" stroke="#999"/>
<rect x="703.89" y="620.00" width="44.22" height="0.00" fill="#d9d9d9" stroke="#999"/>
<rect x="751.11" y="620.00" width="44.22" height="0.00" fill="#d9d9d9" stroke="#999"/>
<rect x="798.33" y="620.00" width="44.22" height="0.00" fill="#d9d9d9" stroke="#999"/>
<rect x="845.56" y="620.00" width="44.22" height="0.00" fill="#d9d9d9" stroke="#999"/>
<rect x="892.78" y="620.00" width="44.22" height="0.00" fill="#d9d9d9" stroke="#999"/>
<line x1="90.00" y1="620" x2="90.00" y2="625" stroke="#333"/>
<text x="90.00" y="642" text-anchor="middle" font-size="12" font-family="Arial">0.0</text>
<line x1="260.00" y1="620" x2="260.00" y2="625" stroke="#333"/>
<text x="260.00" y="642" text-anchor="middle" font-size="12" font-family="Arial">5.9</text>
<line x1="430.00" y1="620" x2="430.00" y2="625" stroke="#333"/>
<text x="430.00" y="642" text-anchor="middle" font-size="12" font-family="Arial">11.8</text>
<line x1="600.00" y1="620" x2="600.00" y2="625" stroke="#333"/>
<text x="600.00" y="642" text-anchor="middle" font-size="12" font-family="Arial">17.8</text>
<line x1="770.00" y1="620" x2="770.00" y2="625" stroke="#333"/>
<text x="770.00" y="642" text-anchor="middle" font-size="12" font-family="Arial">23.7</text>
<line x1="940.00" y1="620" x2="940.00" y2="625" stroke="#333"/>
<text x="940.00" y="642" text-anchor="middle" font-size="12" font-family="Arial">29.6</text>
<line x1="264.98" y1="70" x2="264.98" y2="620" stroke="#2a6fbb" stroke-width="2"/>
<text x="958" y="92.00" font-size="12" font-family="Arial" fill="#2a6fbb">mask16_gc.csv: D=6.09, pct=91.6</text>
<line x1="289.39" y1="70" x2="289.39" y2="620" stroke="#2a6fbb" stroke-width="2"/>
<text x="958" y="116.00" font-size="12" font-family="Arial" fill="#2a6fbb">mask5_gc.csv: D=6.94, pct=96.3</text>
<line x1="331.80" y1="70" x2="331.80" y2="620" stroke="#2a6fbb" stroke-width="2"/>
<text x="958" y="140.00" font-size="12" font-family="Arial" fill="#2a6fbb">mask20_gc.csv: D=8.42, pct=100.0</text>
<line x1="344.41" y1="70" x2="344.41" y2="620" stroke="#2a6fbb" stroke-width="2"/>
<text x="958" y="164.00" font-size="12" font-family="Arial" fill="#2a6fbb">mask14_gc.csv: D=8.86, pct=100.0</text>
<line x1="365.88" y1="70" x2="365.88" y2="620" stroke="#2a6fbb" stroke-width="2"/>
<text x="958" y="188.00" font-size="12" font-family="Arial" fill="#2a6fbb">mask15_gc.csv: D=9.61, pct=100.0</text>
<line x1="370.80" y1="70" x2="370.80" y2="620" stroke="#2a6fbb" stroke-width="2"/>
<text x="958" y="212.00" font-size="12" font-family="Arial" fill="#2a6fbb">mask7_gc.csv: D=9.78, pct=100.0</text>
<line x1="410.11" y1="70" x2="410.11" y2="620" stroke="#2a6fbb" stroke-width="2"/>
<text x="958" y="236.00" font-size="12" font-family="Arial" fill="#2a6fbb">mask1_gc.csv: D=11.15, pct=100.0</text>
<line x1="412.66" y1="70" x2="412.66" y2="620" stroke="#2a6fbb" stroke-width="2"/>
<text x="958" y="260.00" font-size="12" font-family="Arial" fill="#2a6fbb">mask11_gc.csv: D=11.24, pct=100.0</text>
<line x1="422.70" y1="70" x2="422.70" y2="620" stroke="#2a6fbb" stroke-width="2"/>
<text x="958" y="284.00" font-size="12" font-family="Arial" fill="#2a6fbb">mask3_gc.csv: D=11.59, pct=100.0</text>
<line x1="448.99" y1="70" x2="448.99" y2="620" stroke="#2a6fbb" stroke-width="2"/>
<text x="958" y="308.00" font-size="12" font-family="Arial" fill="#2a6fbb">mask19_gc.csv: D=12.50, pct=100.0</text>
<line x1="460.73" y1="70" x2="460.73" y2="620" stroke="#2a6fbb" stroke-width="2"/>
<text x="958" y="332.00" font-size="12" font-family="Arial" fill="#2a6fbb">mask6_gc.csv: D=12.91, pct=100.0</text>
<line x1="467.35" y1="70" x2="467.35" y2="620" stroke="#2a6fbb" stroke-width="2"/>
<text x="958" y="356.00" font-size="12" font-family="Arial" fill="#2a6fbb">mask2_gc.csv: D=13.14, pct=100.0</text>
<line x1="496.96" y1="70" x2="496.96" y2="620" stroke="#2a6fbb" stroke-width="2"/>
<text x="958" y="380.00" font-size="12" font-family="Arial" fill="#2a6fbb">mask8_gc.csv: D=14.17, pct=100.0</text>
<line x1="504.10" y1="70" x2="504.10" y2="620" stroke="#2a6fbb" stroke-width="2"/>
<text x="958" y="404.00" font-size="12" font-family="Arial" fill="#2a6fbb">mask12_gc.csv: D=14.42, pct=100.0</text>
<line x1="513.91" y1="70" x2="513.91" y2="620" stroke="#2a6fbb" stroke-width="2"/>
<text x="958" y="428.00" font-size="12" font-family="Arial" fill="#2a6fbb">mask9_gc.csv: D=14.76, pct=100.0</text>
<line x1="521.41" y1="70" x2="521.41" y2="620" stroke="#2a6fbb" stroke-width="2"/>
<text x="958" y="452.00" font-size="12" font-family="Arial" fill="#2a6fbb">mask18_gc.csv: D=15.02, pct=100.0</text>
<line x1="547.07" y1="70" x2="547.07" y2="620" stroke="#2a6fbb" stroke-width="2"/>
<text x="958" y="476.00" font-size="12" font-family="Arial" fill="#2a6fbb">mask17_gc.csv: D=15.92, pct=100.0</text>
<line x1="551.66" y1="70" x2="551.66" y2="620" stroke="#2a6fbb" stroke-width="2"/>
<text x="958" y="500.00" font-size="12" font-family="Arial" fill="#2a6fbb">mask13_gc.csv: D=16.08, pct=100.0</text>
<line x1="583.18" y1="70" x2="583.18" y2="620" stroke="#2a6fbb" stroke-width="2"/>
<text x="958" y="524.00" font-size="12" font-family="Arial" fill="#2a6fbb">mask4_gc.csv: D=17.18, pct=100.0</text>
<line x1="940.00" y1="70" x2="940.00" y2="620" stroke="#2a6fbb" stroke-width="2"/>
<text x="958" y="548.00" font-size="12" font-family="Arial" fill="#2a6fbb">mask10_gc.csv: D=29.60, pct=100.0</text>
<text x="515.00" y="680" text-anchor="middle" font-size="14" font-family="Arial">Mahalanobis distance</text>
<text x="22" y="345.00" transform="rotate(-90 22 345.00)" text-anchor="middle" font-size="14" font-family="Arial">Reference window count</text>
</svg>