<svg xmlns="http://www.w3.org/2000/svg" width="1200" height="680" viewBox="0 0 1200 680">
<rect width="100%" height="100%" fill="white"/>
<text x="600" y="35" text-anchor="middle" font-size="22" font-family="Arial">each_mask positions in real-window Mahalanobis distance distribution</text>
<line x1="90" y1="600" x2="980" y2="600" stroke="#333"/>
<line x1="90" y1="70" x2="90" y2="600" stroke="#333"/>
<line x1="85" y1="600.00" x2="980" y2="600.00" stroke="#ddd"/>
<text x="80" y="604.00" text-anchor="end" font-size="12" font-family="Arial">0</text>
<line x1="85" y1="494.00" x2="980" y2="494.00" stroke="#ddd"/>
<text x="80" y="498.00" text-anchor="end" font-size="12" font-family="Arial">13</text>
<line x1="85" y1="388.00" x2="980" y2="388.00" stroke="#ddd"/>
<text x="80" y="392.00" text-anchor="end" font-size="12" font-family="Arial">26</text>
<line x1="85" y1="282.00" x2="980" y2="282.00" stroke="#ddd"/>
<text x="80" y="286.00" text-anchor="end" font-size="12" font-family="Arial">40</text>
<line x1="85" y1="176.00" x2="980" y2="176.00" stroke="#ddd"/>
<text x="80" y="180.00" text-anchor="end" font-size="12" font-family="Arial">53</text>
<line x1="85" y1="70.00" x2="980" y2="70.00" stroke="#ddd"/>
<text x="80" y="74.00" text-anchor="end" font-size="12" font-family="Arial">66</text>
<rect x="90.00" y="600.00" width="46.44" height="0.00" fill="#d9d9d9" stroke="#999"/>
<rect x="139.44" y="600.00" width="46.44" height="0.00" fill="#d9d9d9" stroke="#999"/>
<rect x="188.89" y="70.00" width="46.44" height="530.00" fill="#d9d9d9" stroke="#999"/>
<rect x="238.33" y="310.91" width="46.44" height="289.09" fill="#d9d9d9" stroke="#999"/>
<rect x="287.78" y="559.85" width="46.44" height="40.15" fill="#d9d9d9" stroke="#999"/>
<rect x="337.22" y="600.00" width="46.44" height="0.00" fill="#d9d9d9" stroke="#999"/>
<rect x="386.67" y="600.00" width="46.44" height="0.00" fill="#d9d9d9" stroke="#999"/>
<rect x="436.11" y="600.00" width="46.44" height="0.00" fill="#d9d9d9" stroke="#999"/>
<rect x="485.56" y="600.00" width="46.44" height="0.00" fill="#d9d9d9" stroke="#999"/>
<rect x="535.00" y="600.00" width="46.44" height="0.00" fill="#d9d9d9" stroke="#999"/>
<rect x="584.44" y="600.00" width="46.44" height="0.00" fill="#d9d9d9" stroke="#999"/>
<rect x="633.89" y="600.00" width="46.44" height="0.00" fill="#d9d9d9" stroke="#999"/>
<rect x="683.33" y="600.00" width="46.44" height="0.00" fill="#d9d9d9" stroke="#999"/>
<rect x="732.78" y="600.00" width="46.44" height="0.00" fill="#d9d9d9" stroke="#999"/>
<rect x="782.22" y="600.00" width="46.44" height="0.00" fill="#d9d9d9" stroke="#999"/>
<rect x="831.67" y="600.00" width="46.44" height="0.00" fill="#d9d9d9" stroke="#999"/>
<rect x="881.11" y="600.00" width="46.44" height="0.00" fill="#d9d9d9" stroke="#999"/>
<rect x="930.56" y="600.00" width="46.44" height="0.00" fill="#d9d9d9" stroke="#999"/>
<line x1="90.00" y1="600" x2="90.00" y2="605" stroke="#333"/>
<text x="90.00" y="622" text-anchor="middle" font-size="12" font-family="Arial">0.0</text>
<line x1="268.00" y1="600" x2="268.00" y2="605" stroke="#333"/>
<text x="268.00" y="622" text-anchor="middle" font-size="12" font-family="Arial">5.4</text>
<line x1="446.00" y1="600" x2="446.00" y2="605" stroke="#333"/>
<text x="446.00" y="622" text-anchor="middle" font-size="12" font-family="Arial">10.7</text>
<line x1="624.00" y1="600" x2="624.00" y2="605" stroke="#333"/>
<text x="624.00" y="622" text-anchor="middle" font-size="12" font-family="Arial">16.1</text>
<line x1="802.00" y1="600" x2="802.00" y2="605" stroke="#333"/>
<text x="802.00" y="622" text-anchor="middle" font-size="12" font-family="Arial">21.4</text>
<line x1="980.00" y1="600" x2="980.00" y2="605" stroke="#333"/>
<text x="980.00" y="622" text-anchor="middle" font-size="12" font-family="Arial">26.8</text>
<line x1="263.81" y1="70" x2="263.81" y2="600" stroke="#1f77b4" stroke-width="2"/>
<circle cx="263.81" cy="634" r="5" fill="#1f77b4"/>
<text x="998" y="90.00" font-size="12" font-family="Arial" fill="#1f77b4">mask8_gc.csv: D=5.23, pct=91.6</text>
<line x1="284.91" y1="70" x2="284.91" y2="600" stroke="#1f77b4" stroke-width="2"/>
<circle cx="284.91" cy="634" r="5" fill="#1f77b4"/>
<text x="998" y="112.00" font-size="12" font-family="Arial" fill="#1f77b4">mask4_gc.csv: D=5.87, pct=95.3</text>
<line x1="314.71" y1="70" x2="314.71" y2="600" stroke="#1f77b4" stroke-width="2"/>
<circle cx="314.71" cy="634" r="5" fill="#1f77b4"/>
<text x="998" y="134.00" font-size="12" font-family="Arial" fill="#1f77b4">mask9_gc.csv: D=6.76, pct=97.2</text>
<line x1="324.05" y1="70" x2="324.05" y2="600" stroke="#1f77b4" stroke-width="2"/>
<circle cx="324.05" cy="634" r="5" fill="#1f77b4"/>
<text x="998" y="156.00" font-size="12" font-family="Arial" fill="#1f77b4">mask11_gc.csv: D=7.04, pct=99.1</text>
<line x1="330.56" y1="70" x2="330.56" y2="600" stroke="#1f77b4" stroke-width="2"/>
<circle cx="330.56" cy="634" r="5" fill="#1f77b4"/>
<text x="998" y="178.00" font-size="12" font-family="Arial" fill="#1f77b4">mask14_gc.csv: D=7.24, pct=100.0</text>
<line x1="333.30" y1="70" x2="333.30" y2="600" stroke="#1f77b4" stroke-width="2"/>
<circle cx="333.30" cy="634" r="5" fill="#1f77b4"/>
<text x="998" y="200.00" font-size="12" font-family="Arial" fill="#1f77b4">mask3_gc.csv: D=7.32, pct=100.0</text>
<line x1="367.23" y1="70" x2="367.23" y2="600" stroke="#1f77b4" stroke-width="2"/>
<circle cx="367.23" cy="634" r="5" fill="#1f77b4"/>
<text x="998" y="222.00" font-size="12" font-family="Arial" fill="#1f77b4">mask2_gc.csv: D=8.34, pct=100.0</text>
<line x1="388.81" y1="70" x2="388.81" y2="600" stroke="#1f77b4" stroke-width="2"/>
<circle cx="388.81" cy="634" r="5" fill="#1f77b4"/>
<text x="998" y="244.00" font-size="12" font-family="Arial" fill="#1f77b4">mask5_gc.csv: D=8.99, pct=100.0</text>
<line x1="392.94" y1="70" x2="392.94" y2="600" stroke="#1f77b4" stroke-width="2"/>
<circle cx="392.94" cy="634" r="5" fill="#1f77b4"/>
<text x="998" y="266.00" font-size="12" font-family="Arial" fill="#1f77b4">mask16_gc.csv: D=9.12, pct=100.0</text>
<line x1="403.05" y1="70" x2="403.05" y2="600" stroke="#1f77b4" stroke-width="2"/>
<circle cx="403.05" cy="634" r="5" fill="#1f77b4"/>
<text x="998" y="288.00" font-size="12" font-family="Arial" fill="#1f77b4">mask12_gc.csv: D=9.42, pct=100.0</text>
<line x1="452.60" y1="70" x2="452.60" y2="600" stroke="#1f77b4" stroke-width="2"/>
<circle cx="452.60" cy="634" r="5" fill="#1f77b4"/>
<text x="998" y="90.00" font-size="12" font-family="Arial" fill="#1f77b4">mask20_gc.csv: D=10.91, pct=100.0</text>
<line x1="477.13" y1="70" x2="477.13" y2="600" stroke="#1f77b4" stroke-width="2"/>
<circle cx="477.13" cy="634" r="5" fill="#1f77b4"/>
<text x="998" y="112.00" font-size="12" font-family="Arial" fill="#1f77b4">mask6_gc.csv: D=11.65, pct=100.0</text>
<line x1="494.94" y1="70" x2="494.94" y2="600" stroke="#1f77b4" stroke-width="2"/>
<circle cx="494.94" cy="634" r="5" fill="#1f77b4"/>
<text x="998" y="134.00" font-size="12" font-family="Arial" fill="#1f77b4">mask19_gc.csv: D=12.19, pct=100.0</text>
<line x1="546.25" y1="70" x2="546.25" y2="600" stroke="#1f77b4" stroke-width="2"/>
<circle cx="546.25" cy="634" r="5" fill="#1f77b4"/>
<text x="998" y="156.00" font-size="12" font-family="Arial" fill="#1f77b4">mask10_gc.csv: D=13.73, pct=100.0</text>
<line x1="571.35" y1="70" x2="571.35" y2="600" stroke="#1f77b4" stroke-width="2"/>
<circle cx="571.35" cy="634" r="5" fill="#1f77b4"/>
<text x="998" y="178.00" font-size="12" font-family="Arial" fill="#1f77b4">mask17_gc.csv: D=14.48, pct=100.0</text>
<line x1="578.34" y1="70" x2="578.34" y2="600" stroke="#1f77b4" stroke-width="2"/>
<circle cx="578.34" cy="634" r="5" fill="#1f77b4"/>
<text x="998" y="200.00" font-size="12" font-family="Arial" fill="#1f77b4">mask1_gc.csv: D=14.69, pct=100.0</text>
<line x1="609.34" y1="70" x2="609.34" y2="600" stroke="#1f77b4" stroke-width="2"/>
<circle cx="609.34" cy="634" r="5" fill="#1f77b4"/>
<text x="998" y="222.00" font-size="12" font-family="Arial" fill="#1f77b4">mask15_gc.csv: D=15.63, pct=100.0</text>
<line x1="770.29" y1="70" x2="770.29" y2="600" stroke="#1f77b4" stroke-width="2"/>
<circle cx="770.29" cy="634" r="5" fill="#1f77b4"/>
<text x="998" y="244.00" font-size="12" font-family="Arial" fill="#1f77b4">mask18_gc.csv: D=20.47, pct=100.0</text>
<line x1="945.00" y1="70" x2="945.00" y2="600" stroke="#1f77b4" stroke-width="2"/>
<circle cx="945.00" cy="634" r="5" fill="#1f77b4"/>
<text x="998" y="266.00" font-size="12" font-family="Arial" fill="#1f77b4">mask13_gc.csv: D=25.73, pct=100.0</text>
<line x1="980.00" y1="70" x2="980.00" y2="600" stroke="#1f77b4" stroke-width="2"/>
<circle cx="980.00" cy="634" r="5" fill="#1f77b4"/>
<text x="998" y="288.00" font-size="12" font-family="Arial" fill="#1f77b4">mask7_gc.csv: D=26.78, pct=100.0</text>
<text x="535.00" y="660" text-anchor="middle" font-size="14" font-family="Arial">Mahalanobis distance</text>
<text x="22" y="335.00" transform="rotate(-90 22 335.00)" text-anchor="middle" font-size="14" font-family="Arial">Reference window count</text>
</svg>